<svg xmlns="http://www.w3.org/2000/svg" width="1280" height="320" viewBox="0 0 1280 320" role="img" aria-labelledby="title desc"><title id="title">Join the Bloons+ Discord</title><desc id="desc">A mint and coral community banner: share routes, get help, follow development.</desc><defs><linearGradient id="bg" x2="1" y2="1"><stop stop-color="#eef6f1"/><stop offset="1" stop-color="#fbe8df"/></linearGradient><linearGradient id="coral" x2="1" y2="1"><stop stop-color="#ffb397"/><stop offset="1" stop-color="#ed725d"/></linearGradient></defs><rect width="1280" height="320" rx="32" fill="url(#bg)"/><circle cx="1150" cy="10" r="230" fill="#d8ebe3" opacity=".7"/><circle cx="1080" cy="310" r="160" fill="#f6c3ad" opacity=".5"/><rect x="58" y="42" width="52" height="52" rx="16" fill="url(#coral)"/><path d="M84 51c-9 0-15 6-15 15 0 8 5 13 12 16l-3 4h12l-3-4c7-3 12-8 12-16 0-9-6-15-15-15Z" fill="white"/><text x="128" y="78" fill="#243c3c" font-family="Segoe UI,Arial,sans-serif" font-size="30" font-weight="700">Bloons+</text><text x="58" y="159" fill="#243c3c" font-family="Segoe UI,Arial,sans-serif" font-size="49" font-weight="700" letter-spacing="-1">Better runs. Together.</text><text x="60" y="204" fill="#59716c" font-family="Segoe UI,Arial,sans-serif" font-size="21">Share routes. Get help. Follow development.</text><rect x="58" y="234" width="233" height="44" rx="22" fill="#243c3c"/><text x="85" y="262" fill="white" font-family="Segoe UI,Arial,sans-serif" font-size="17" font-weight="600">Join our Discord ↗</text><g transform="translate(916 68)"><rect width="256" height="180" rx="26" fill="white" opacity=".85" stroke="#d4ded7"/><path d="M55 62h138a15 15 0 0 1 15 15v39a15 15 0 0 1-15 15h-71l-29 21v-21H55a15 15 0 0 1-15-15V77a15 15 0 0 1 15-15Z" fill="#d8ebe3"/><circle cx="88" cy="96" r="7" fill="#59716c"/><circle cx="124" cy="96" r="7" fill="#59716c"/><circle cx="160" cy="96" r="7" fill="#59716c"/><circle cx="204" cy="41" r="24" fill="url(#coral)"/><path d="M204 31v20m-10-10h20" stroke="white" stroke-width="4" stroke-linecap="round"/></g></svg>