<svg xmlns="http://www.w3.org/2000/svg" width="1280" height="210" viewBox="0 0 1280 210" role="img" aria-labelledby="title desc">
<title id="title">Join the Bloons+ Discord</title><desc id="desc">Talk routes, report bugs and follow the next release.</desc>
<defs><linearGradient id="bg" x2="1" y2="1"><stop stop-color="#1f4034"/><stop offset="1" stop-color="#2c5141"/></linearGradient></defs>
<rect width="1280" height="210" rx="25" fill="url(#bg)"/>
<path d="M750-30c-39 88 85 88 111 143s-48 61-21 121" fill="none" stroke="#80a981" stroke-width="15" opacity=".4"/><path d="M750-30c-39 88 85 88 111 143s-48 61-21 121" fill="none" stroke="#d5c68c" stroke-width="2" stroke-dasharray="7 14" opacity=".65"/>
<circle cx="1023" cy="94" r="36" fill="#ef987e"/><path d="M1023 68c-15 0-25 11-25 26 0 13 9 22 20 27l-4 7h18l-4-7c12-5 20-15 20-27 0-15-10-26-25-26Z" fill="#fff"/><circle cx="1110" cy="142" r="27" fill="#f4c878"/><circle cx="1187" cy="67" r="21" fill="#8eb9b4"/>
<text x="54" y="56" fill="#b9d2bf" font-family="Segoe UI,Arial,sans-serif" font-size="15" font-weight="700" letter-spacing="2">BLOONS+ COMMUNITY</text>
<text x="54" y="118" fill="#f6f8ed" font-family="Manrope,Segoe UI,Arial,sans-serif" font-size="42" font-weight="800">Join the next round.</text>
<text x="55" y="161" fill="#bdd3c5" font-family="DM Sans,Segoe UI,Arial,sans-serif" font-size="19">Routes, help and updates in our Discord.</text>
<rect x="1013" y="156" width="194" height="36" rx="17" fill="#f2aa8e"/><text x="1037" y="180" fill="#243c35" font-family="Segoe UI,Arial,sans-serif" font-size="15" font-weight="700">JOIN DISCORD ↗</text>
</svg>
